HIERARCHY
ROOT Hips
{
	OFFSET 47.372101 -34.977116 84.160294
	CHANNELS 6 Xposition Yposition Zposition Xrotation Yrotation Zrotation
	JOINT spine
	{
		OFFSET 0.000000 -0.359108 6.244789
		CHANNELS 3 Xrotation Yrotation Zrotation
		JOINT spine1
		{
			OFFSET 0.000000 0.000000 9.069412
			CHANNELS 3 Xrotation Yrotation Zrotation
			JOINT spine2
			{
				OFFSET 0.000000 -0.000004 8.690140
				CHANNELS 3 Xrotation Yrotation Zrotation
				JOINT Neck
				{
					OFFSET 0.000000 -1.063725 22.311211
					CHANNELS 3 Xrotation Yrotation Zrotation
					JOINT Head
					{
						OFFSET 0.000000 0.000000 6.740814
						CHANNELS 3 Xrotation Yrotation Zrotation
						End Site
						{
							OFFSET 0.000000 5.380968 16.316498
						}
					}
				}
				JOINT RightShoulder
				{
					OFFSET -3.659161 0.509514 9.384682
					CHANNELS 3 Xrotation Yrotation Zrotation
					JOINT RightArm
					{
						OFFSET 0.000000 -0.000004 12.308914
						CHANNELS 3 Xrotation Yrotation Zrotation
						JOINT RightArmRoll
						{
							OFFSET 0.000000 0.000000 6.213745
							CHANNELS 3 Xrotation Yrotation Zrotation
							JOINT RightForeArm
							{
								OFFSET 0.000000 -0.000004 18.098495
								CHANNELS 3 Xrotation Yrotation Zrotation
								JOINT RightForeArmRoll
								{
									OFFSET 0.000000 0.000000 6.972794
									CHANNELS 3 Xrotation Yrotation Zrotation
									JOINT RightHand
									{
										OFFSET 0.000000 0.000000 13.992905
										CHANNELS 3 Xrotation Yrotation Zrotation
										End Site
										{
											OFFSET 0.000000 0.000000 0.100006
										}
									}
								}
							}
						}
					}
				}
				JOINT LeftShoulder
				{
					OFFSET 3.659161 0.509514 9.384682
					CHANNELS 3 Xrotation Yrotation Zrotation
					JOINT LeftArm
					{
						OFFSET 0.000000 -0.000004 12.308914
						CHANNELS 3 Xrotation Yrotation Zrotation
						JOINT LeftArmRoll
						{
							OFFSET 0.000000 0.000000 6.213745
							CHANNELS 3 Xrotation Yrotation Zrotation
							JOINT LeftForeArm
							{
								OFFSET 0.000000 -0.000004 18.098495
								CHANNELS 3 Xrotation Yrotation Zrotation
								JOINT LeftForeArmRoll
								{
									OFFSET 0.000000 0.000000 6.972794
									CHANNELS 3 Xrotation Yrotation Zrotation
									JOINT LeftHand
									{
										OFFSET 0.000000 0.000000 13.992905
										CHANNELS 3 Xrotation Yrotation Zrotation
										End Site
										{
											OFFSET 0.000000 0.000000 0.100006
										}
									}
								}
							}
						}
					}
				}
			}
		}
	}
	JOINT RightUpLeg
	{
		OFFSET -5.535149 0.851456 -1.014999
		CHANNELS 3 Xrotation Yrotation Zrotation
		JOINT RightUpLegRoll
		{
			OFFSET 0.000000 0.000000 16.407501
			CHANNELS 3 Xrotation Yrotation Zrotation
			JOINT RightLeg
			{
				OFFSET 0.000000 0.000004 -20.318100
				CHANNELS 3 Xrotation Yrotation Zrotation
				JOINT RightLegRoll
				{
					OFFSET 0.000000 -0.000004 20.384598
					CHANNELS 3 Xrotation Yrotation Zrotation
					JOINT RightFoot
					{
						OFFSET 0.000000 -0.000004 16.966805
						CHANNELS 3 Xrotation Yrotation Zrotation
						JOINT RightToeBase
						{
							OFFSET 0.000000 -0.000004 14.183403
							CHANNELS 3 Xrotation Yrotation Zrotation
							End Site
							{
								OFFSET 0.006012 0.791744 6.868896
							}
						}
					}
				}
			}
		}
	}
	JOINT LeftUpLeg
	{
		OFFSET 5.535149 0.851456 -1.014999
		CHANNELS 3 Xrotation Yrotation Zrotation
		JOINT LeftUpLegRoll
		{
			OFFSET 0.000000 0.000000 16.407600
			CHANNELS 3 Xrotation Yrotation Zrotation
			JOINT LeftLeg
			{
				OFFSET 0.000000 -0.000004 20.318100
				CHANNELS 3 Xrotation Yrotation Zrotation
				JOINT LeftLegRoll
				{
					OFFSET 0.000000 -0.000004 20.573112
					CHANNELS 3 Xrotation Yrotation Zrotation
					JOINT LeftFoot
					{
						OFFSET 0.000000 -0.000004 16.778305
						CHANNELS 3 Xrotation Yrotation Zrotation
						JOINT LeftToeBase
						{
							OFFSET 0.000000 0.000000 14.183395
							CHANNELS 3 Xrotation Yrotation Zrotation
							End Site
							{
								OFFSET -0.026943 0.791740 6.868896
							}
						}
					}
				}
			}
		}
	}
}
MOTION
Frames: 10
Frame Time: 0.041667
49.105797 7.813084 48.983501 -6.322686 1.560783 -3.278264 1.160617 0.383332 -0.008481 6.324240 0.760854 -0.030379 7.969408 0.760440 -0.039493 3.130697 -12.078680 -0.063304 10.288331 9.457396 0.538203 -8.278730 -76.298213 -10.847743 112.969068 -45.262841 90.493006 0.000000 0.000001 -0.000002 49.594629 -16.733673 6.387012 -0.000024 -0.000005 -3.000000 -5.000242 -7.998797 0.000145 -26.525460 58.038884 31.439815 -51.890945 140.898374 68.470447 -0.000000 0.000006 0.000001 44.792661 13.449982 -3.985356 -0.000011 -0.000002 3.000010 -4.999768 7.998718 -0.000032 -81.997377 174.226815 -1.929271 179.999991 0.000005 -0.640985 102.476306 2.356304 0.712416 -0.000007 0.000002 0.758173 62.380917 4.781398 7.171516 25.456943 -7.355356 0.000006 -83.313473 177.194177 3.928563 -0.000005 -0.000004 -0.907101 -84.511249 -3.381008 -1.319383 -0.000003 0.000004 -1.170350 65.901551 -5.806150 -4.949265 25.457534 7.353503 -0.001665 
49.110897 7.812538 48.977493 -6.326349 1.559291 -3.272828 1.158979 0.383246 -0.009050 6.320981 0.761406 -0.033639 7.966149 0.760953 -0.042761 3.151522 -12.071159 -0.058591 10.289922 9.456382 0.539294 -8.201422 -76.317440 -10.765765 112.943960 -45.285254 90.484488 0.000000 0.000002 0.000001 49.594813 -16.731081 6.385416 -0.000025 -0.000003 -3.000000 -5.000242 -7.998801 0.000144 -26.522786 58.041691 31.436475 -51.897557 140.897418 68.460079 -0.000001 0.000007 0.000002 44.749494 13.458849 -3.985578 -0.000012 0.000000 3.000011 -4.999767 7.998722 -0.000031 -81.994707 174.235858 -1.929378 179.999991 0.000005 -0.640985 102.473171 2.357285 0.712360 -0.000005 0.000002 0.758173 62.377481 4.780898 7.171946 25.456943 -7.355357 0.000006 -83.311608 177.202278 3.925082 -0.000005 -0.000004 -0.907101 -84.513100 -3.381344 -1.320426 -0.000003 0.000004 -1.170360 65.903867 -5.807222 -4.945368 25.457531 7.353504 -0.001665 
49.102497 7.810665 48.967590 -6.330388 1.557699 -3.266993 1.157338 0.383153 -0.009635 6.317721 0.761983 -0.037048 7.962878 0.761490 -0.046176 3.173345 -12.063419 -0.054030 10.291715 9.455315 0.540102 -8.121500 -76.337432 -10.681031 112.918170 -45.308395 90.476135 -0.000001 0.000000 0.000001 49.594512 -16.728653 6.383973 -0.000026 -0.000005 -2.999999 -5.000239 -7.998806 0.000142 -26.519946 58.044546 31.432903 -51.903431 140.897008 68.448126 -0.000002 0.000007 0.000001 44.704722 13.468065 -3.985754 -0.000012 0.000000 3.000010 -4.999766 7.998720 -0.000030 -81.991647 174.245448 -1.929551 179.999991 0.000005 -0.640985 102.469838 2.358232 0.711330 -0.000007 0.000002 0.758173 62.373738 4.780398 7.172389 25.456947 -7.355356 0.000006 -83.309368 177.210761 3.922326 -0.000005 -0.000004 -0.907101 -84.514985 -3.381728 -1.321663 -0.000002 0.000004 -1.170390 65.906374 -5.808328 -4.941274 25.457531 7.353505 -0.001665 
49.106297 7.803581 48.970688 -6.334689 1.556036 -3.260880 1.155699 0.383056 -0.010232 6.314463 0.762579 -0.040559 7.959617 0.762044 -0.049696 3.195877 -12.055675 -0.049564 10.293508 9.454217 0.540733 -8.039758 -76.358052 -10.594393 112.890692 -45.332553 90.466183 0.000002 0.000001 0.000000 49.594031 -16.726356 6.382554 -0.000025 -0.000008 -3.000001 -5.000241 -7.998801 0.000143 -26.516992 58.047531 31.429221 -51.909943 140.895997 68.436788 -0.000001 0.000007 0.000002 44.659062 13.477548 -3.986010 -0.000010 0.000000 3.000011 -4.999771 7.998723 -0.000031 -81.988307 174.255474 -1.930117 179.999991 0.000005 -0.640984 102.466409 2.359154 0.711300 -0.000006 0.000002 0.758173 62.369804 4.779881 7.172836 25.456945 -7.355356 0.000005 -83.307052 177.219777 3.918794 -0.000005 -0.000004 -0.907101 -84.516973 -3.382093 -1.322702 -0.000003 0.000004 -1.170420 65.908996 -5.809453 -4.937075 25.457532 7.353503 -0.001664 
49.110294 7.806530 48.975693 -6.339119 1.554333 -3.254607 1.154067 0.382956 -0.010835 6.311204 0.763184 -0.044131 7.956360 0.762607 -0.053276 3.218792 -12.047926 -0.045162 10.295403 9.453091 0.541254 -7.956802 -76.378884 -10.506471 112.863303 -45.356872 90.456799 -0.000000 0.000000 0.000000 49.593341 -16.724119 6.381081 -0.000025 -0.000005 -3.000001 -5.000241 -7.998802 0.000143 -26.514046 58.050515 31.425506 -51.916459 140.894986 68.425245 0.000000 0.000007 0.000002 44.612675 13.487109 -3.986145 -0.000011 -0.000002 3.000010 -4.999765 7.998721 -0.000032 -81.984776 174.265774 -1.931081 179.999991 0.000005 -0.640985 102.462939 2.360298 0.711247 -0.000006 0.000002 0.758173 62.365849 4.779317 7.173272 25.456941 -7.355356 0.000006 -83.304511 177.228820 3.916064 -0.000005 -0.000004 -0.907101 -84.518885 -3.382523 -1.323839 -0.000003 0.000004 -1.170450 65.911640 -5.810658 -4.932694 25.457531 7.353504 -0.001665 
49.107597 7.809196 48.968494 -6.343598 1.552610 -3.248296 1.152425 0.382856 -0.011440 6.307943 0.763792 -0.047717 7.953101 0.763174 -0.056870 3.241819 -12.040069 -0.040781 10.297292 9.451959 0.541746 -7.873350 -76.399791 -10.418043 112.835955 -45.381262 90.447530 0.000001 0.000001 -0.000000 49.592668 -16.721884 6.379706 -0.000025 -0.000007 -3.000001 -5.000244 -7.998802 0.000143 -26.510922 58.053534 31.421647 -51.922326 140.894590 68.412691 -0.000000 0.000007 0.000001 44.566209 13.496750 -3.986340 -0.000011 -0.000002 3.000010 -4.999765 7.998724 -0.000032 -81.981354 174.275938 -1.930535 179.999991 0.000005 -0.640985 102.459374 2.361418 0.711200 -0.000007 0.000002 0.758173 62.361792 4.778771 7.173716 25.456945 -7.355356 0.000006 -83.301964 177.238150 3.911856 -0.000005 -0.000004 -0.907101 -84.520900 -3.382922 -1.325079 -0.000002 0.000004 -1.170490 65.914283 -5.811823 -4.928402 25.457534 7.353503 -0.001665 
49.110596 7.811470 48.974388 -6.347993 1.550907 -3.242065 1.150789 0.382757 -0.012042 6.304684 0.764396 -0.051274 7.949842 0.763736 -0.060435 3.264637 -12.032216 -0.036382 10.299085 9.450845 0.542302 -7.790090 -76.420453 -10.329824 112.809365 -45.405079 90.439252 0.000001 0.000001 0.000001 49.591965 -16.719579 6.378151 -0.000025 -0.000004 -3.000000 -5.000239 -7.998803 0.000142 -26.507973 58.056519 31.417934 -51.928839 140.893566 68.401162 -0.000002 0.000007 0.000002 44.519945 13.506413 -3.986546 -0.000012 0.000001 3.000011 -4.999763 7.998724 -0.000032 -81.977952 174.286101 -1.930788 179.999991 0.000005 -0.640985 102.455802 2.362538 0.711151 -0.000006 0.000002 0.758173 62.357762 4.778271 7.174172 25.456947 -7.355356 0.000006 -83.299443 177.247193 3.908713 -0.000005 -0.000004 -0.907101 -84.522806 -3.383345 -1.326215 -0.000003 0.000004 -1.170530 65.916913 -5.812988 -4.924112 25.457525 7.353503 -0.001664 
49.109196 7.810490 48.978596 -6.352213 1.549264 -3.236032 1.149156 0.382661 -0.012636 6.301415 0.764988 -0.054755 7.946571 0.764286 -0.063924 3.286959 -12.024564 -0.031911 10.300882 9.449749 0.542994 -7.707815 -76.440752 -10.242640 112.781695 -45.429190 90.428856 0.000002 0.000001 -0.000001 49.591480 -16.717282 6.376732 -0.000026 -0.000007 -3.000000 -5.000243 -7.998803 0.000144 -26.505019 58.059504 31.414270 -51.935440 140.892623 68.390076 -0.000001 0.000007 0.000002 44.474473 13.515811 -3.986649 -0.000011 0.000000 3.000011 -4.999765 7.998721 -0.000032 -81.974756 174.295977 -1.930854 179.999991 0.000005 -0.640985 102.452469 2.363478 0.710107 -0.000006 0.000002 0.758173 62.353910 4.777739 7.174613 25.456945 -7.355357 0.000006 -83.297128 177.256045 3.905284 -0.000005 -0.000004 -0.907101 -84.524786 -3.383702 -1.327356 -0.000003 0.000004 -1.170560 65.919453 -5.814176 -4.919830 25.457531 7.353504 -0.001666 
49.109596 7.811291 48.976891 -6.356139 1.547702 -3.230318 1.147519 0.382570 -0.013217 6.298155 0.765561 -0.058119 7.943315 0.764820 -0.067296 3.308478 -12.016826 -0.027344 10.302573 9.448704 0.543894 -7.627154 -76.460273 -10.157173 112.756595 -45.451869 90.421125 0.000002 -0.000000 -0.000003 49.591476 -16.714757 6.375278 -0.000024 -0.000003 -2.999999 -5.000241 -7.998803 0.000144 -26.502165 58.062352 31.410715 -51.941314 140.892227 68.378226 -0.000001 0.000007 0.000002 44.430305 13.524980 -3.986832 -0.000011 -0.000000 3.000010 -4.999765 7.998723 -0.000031 -81.971689 174.305526 -1.932043 179.999991 0.000005 -0.640985 102.449231 2.364438 0.710084 -0.000006 0.000002 0.758173 62.350277 4.777271 7.174957 25.456943 -7.355356 0.000006 -83.295099 177.264473 3.902328 -0.000005 -0.000004 -0.907101 -84.526658 -3.384065 -1.328395 -0.000002 0.000004 -1.170580 65.921967 -5.815241 -4.915825 25.457531 7.353502 -0.001664 
49.113598 7.815933 48.970402 -6.359666 1.546250 -3.225044 1.145879 0.382486 -0.013779 6.294896 0.766107 -0.061319 7.940044 0.765327 -0.070503 3.328895 -12.009295 -0.022626 10.304163 9.447711 0.545083 -7.548970 -76.478953 -10.074322 112.731166 -45.474197 90.411760 0.000001 0.000000 0.000000 49.591794 -16.712199 6.373790 -0.000026 -0.000004 -3.000001 -5.000243 -7.998806 0.000142 -26.499665 58.065132 31.407559 -51.947834 140.891216 68.368090 -0.000000 0.000007 0.000002 44.387647 13.533811 -3.986940 -0.000010 0.000000 3.000011 -4.999767 7.998722 -0.000033 -81.969216 174.314228 -1.931452 179.999991 0.000005 -0.640985 102.446233 2.365216 0.709064 -0.000005 0.000002 0.758173 62.346950 4.776797 7.175386 25.456948 -7.355356 0.000006 -83.293324 177.272314 3.899244 -0.000005 -0.000004 -0.907101 -84.528413 -3.384436 -1.329529 -0.000003 0.000004 -1.170590 65.924159 -5.816288 -4.911932 25.457532 7.353503 -0.001665 
